<?xml version="1.0" encoding="UTF-8" ?>
<svg xmlns="http://www.w3.org/2000/svg" width="100" height="100" viewBox="0 0 100 100">
    <style>
        path, polygon, circle {
            stroke-width: 2;
            stroke: #303030;
            fill: #303030;
        }
        .bg {
            stroke: none;
            fill: #009a9a;
        }
        g {
            background-color: #ffffff;
        }
        .nofill {
            fill: none;
        }
        .accent * {
            stroke: #ffffff;
        }
    </style>
    <!-- background -->
    <g>
        <rect class="bg" x="0" y="10" width="100" height="80" />
        <rect class="bg" x="10" y="0" width="80" height="100" />
        <circle class="bg" cx="10" cy="10" r="10" />
        <circle class="bg" cx="90" cy="10" r="10" />
        <circle class="bg" cx="90" cy="90" r="10" />
        <circle class="bg" cx="10" cy="90" r="10" />
    </g>
    <!--<rect x="0" y="0" width="100" height="100" class="bg" />-->
    <!-- vertical crosshair -->
    <g>
        <path d="M50,4 L50,100 Z"/>
    </g>
    <!-- bottom left -->
    <g>
        <polygon points="2,49 50,49 25,75" />
        <path d="M25,75 L25,100 Z"/>
    </g>
    <!-- horizontal crosshair and top right -->
    <g>
        <polygon points="50,48 50,2 75,27" />
        <polygon points="50,49 75,27 98,49" class="nofill" />
        <path d="M75.25,27 L75.25,0 Z"/>
    </g>
    <!-- bottom right -->
    <g class="accent">
        <circle cx="75" cy="75" r="15" class="nofill" />
    </g>
    <!-- top left -->
    <g class="accent">
        <g id="curly-x-end" transform="rotate(11 10 25) translate(-3.2 0)">
            <clipPath id="x-clip-top-left">
                <rect x="10" y="5" width="15" height="10" />
            </clipPath>
            <circle cx="10" cy="25" r="15" class="nofill" clip-path="url(#x-clip-top-left)"/>
        </g>
        <path d="M18.6,15 L30.7,34 Z" />
        <g transform="rotate(180 25 25)">
            <use href="#curly-x-end" />
        </g>
        <path d="M11,39 L39,11 Z" />
    </g>
</svg>